<svg xmlns="http://www.w3.org/2000/svg" version="1.1" xmlns:xlink="http://www.w3.org/1999/xlink" xmlns:svgjs="http://svgjs.dev/svgjs" width="1000" height="1000" viewBox="0 0 1000 1000"><rect width="1000" height="1000" fill="#000000"></rect><g transform="matrix(0.7,0,0,0.7,149.57575757575756,282.1265587044535)"><svg viewBox="0 0 396 247" data-background-color="#0023ff" preserveAspectRatio="xMidYMid meet" height="623" width="1000" xmlns="http://www.w3.org/2000/svg" xmlns:xlink="http://www.w3.org/1999/xlink"><g id="tight-bounds" transform="matrix(1,0,0,1,0.2400000000000091,-0.09999999999999432)"><svg viewBox="0 0 395.52 247.2" height="247.2" width="395.52"><g><svg></svg></g><g><svg viewBox="0 0 395.52 247.2" height="247.2" width="395.52"><g transform="matrix(1,0,0,1,75.54432,93.93347069544365)"><svg viewBox="0 0 244.43135999999998 59.33305860911269" height="59.33305860911269" width="244.43135999999998"><g><svg viewBox="0 0 244.43135999999998 59.33305860911269" height="59.33305860911269" width="244.43135999999998"><g><svg viewBox="0 0 244.43135999999998 59.33305860911269" height="59.33305860911269" width="244.43135999999998"><g><svg viewBox="0 0 244.43135999999998 59.33305860911269" height="59.33305860911269" width="244.43135999999998"><g><svg viewBox="0 0 244.43135999999998 59.33305860911269" height="59.33305860911269" width="244.43135999999998"><g><svg viewBox="0 0 244.43135999999998 59.33305860911269" height="59.33305860911269" width="244.43135999999998"><g transform="matrix(1,0,0,1,0,0)"><svg width="244.43135999999998" viewBox="2.950000047683716 -35.150001525878906 187.6300048828125 45.55000305175781" height="59.33305860911269" data-palette-color="#f8fafc"><path d="M16.85-35.15L16.85-35.15Q20.65-35.15 23.33-34.25 26-33.35 27.6-31.3 29.2-29.25 29.93-25.8 30.65-22.35 30.65-17.25L30.65-17.25Q30.65-12.2 29.93-8.72 29.2-5.25 27.6-3.2 26-1.15 23.33-0.25 20.65 0.65 16.85 0.65L16.85 0.65Q13 0.65 10.35-0.25 7.7-1.15 6.08-3.2 4.45-5.25 3.7-8.72 2.95-12.2 2.95-17.25L2.95-17.25Q2.95-22.35 3.7-25.8 4.45-29.25 6.08-31.3 7.7-33.35 10.35-34.25 13-35.15 16.85-35.15ZM13.35 4.95L14.7 2.05Q17.75 3.35 21.1 4.17 24.45 5 28.25 5.6L28.25 5.6 26.75 10.4Q22.7 9.55 19.4 8.08 16.1 6.6 13.35 4.95L13.35 4.95ZM16.85-30.8L16.85-30.8Q13.6-30.8 11.7-29.55 9.8-28.3 9.03-25.38 8.25-22.45 8.25-17.25L8.25-17.25Q8.25-12.1 9.03-9.15 9.8-6.2 11.7-4.95 13.6-3.7 16.85-3.7L16.85-3.7Q20.1-3.7 21.95-4.95 23.8-6.2 24.63-9.15 25.45-12.1 25.45-17.25L25.45-17.25Q25.45-22.45 24.63-25.38 23.8-28.3 21.95-29.55 20.1-30.8 16.85-30.8ZM37.6-24.4L42.35-24.4 42.35 0 37.6 0 37.6-24.4ZM38.85-34.85L41.1-34.85Q42.55-34.85 42.55-33.4L42.55-33.4 42.55-30.55Q42.55-29.1 41.1-29.1L41.1-29.1 38.85-29.1Q37.4-29.1 37.4-30.55L37.4-30.55 37.4-33.4Q37.4-34.85 38.85-34.85L38.85-34.85ZM60.65-25L60.65-25Q61.8-25 63.17-24.9 64.55-24.8 66.02-24.55 67.5-24.3 68.75-23.8L68.75-23.8 68.15-20.7Q66.4-20.85 64.57-20.93 62.75-21 61.45-21L61.45-21Q58.65-21 57.02-20.23 55.4-19.45 54.7-17.55 54-15.65 54-12.25L54-12.25Q54-8.85 54.7-6.9 55.4-4.95 57.02-4.2 58.65-3.45 61.45-3.45L61.45-3.45Q62.2-3.45 63.4-3.5 64.59-3.55 66-3.65 67.4-3.75 68.7-3.95L68.7-3.95 69.15-0.75Q67.3-0.05 65.05 0.28 62.8 0.6 60.59 0.6L60.59 0.6Q56.3 0.6 53.72-0.65 51.15-1.9 50-4.7 48.84-7.5 48.84-12.25L48.84-12.25Q48.84-16.95 50.02-19.75 51.2-22.55 53.77-23.78 56.34-25 60.65-25ZM89.74-24.4L95.34-24.4 87.89-15.55Q87.54-15.05 86.99-14.53 86.44-14 86.09-13.75L86.09-13.75 86.09-13.65Q86.44-13.4 86.99-12.78 87.54-12.15 87.89-11.55L87.89-11.55 96.14 0 90.54 0 81.14-13.95 89.74-24.4ZM74.69-35L79.49-35 79.54-19.65Q79.54-18.05 79.42-16.68 79.29-15.3 78.99-13.8L78.99-13.8Q79.29-12.4 79.39-10.95 79.49-9.5 79.49-8.2L79.49-8.2 79.49 0 74.69 0 74.69-35ZM77.84-15.45L83.54-15.45 83.54-12.05 77.84-12.05 77.84-15.45ZM123.79-34.95L123.79-34.95Q128.04-34.95 130.54-34 133.04-33.05 134.11-30.7 135.19-28.35 135.19-24.05L135.19-24.05Q135.19-19.8 134.14-17.43 133.09-15.05 130.71-14.13 128.34-13.2 124.39-13.2L124.39-13.2Q122.24-13.2 120.26-13.3 118.29-13.4 116.64-13.6 114.99-13.8 113.81-14.03 112.64-14.25 112.19-14.45L112.19-14.45 112.34-17.35Q115.04-17.35 117.94-17.35 120.84-17.35 123.74-17.35L123.74-17.35Q126.14-17.4 127.54-17.95 128.94-18.5 129.54-19.95 130.14-21.4 130.14-24.05L130.14-24.05Q130.14-26.75 129.54-28.2 128.94-29.65 127.54-30.23 126.14-30.8 123.74-30.8L123.74-30.8Q119.54-30.8 116.49-30.75 113.44-30.7 112.39-30.6L112.39-30.6 111.69-34.5Q113.59-34.7 115.29-34.8 116.99-34.9 118.99-34.93 120.99-34.95 123.79-34.95ZM111.69-34.5L116.69-34.5 116.69 0 111.69 0 111.69-34.5ZM152.54-25L152.54-25Q155.34-25 157.26-24.28 159.19-23.55 160.16-21.8 161.14-20.05 161.14-17L161.14-17 161.14 0 157.34 0 156.59-5.3 156.29-5.9 156.29-17Q156.29-19.15 155.29-20.1 154.29-21.05 151.49-21.05L151.49-21.05Q149.59-21.05 146.71-20.85 143.84-20.65 141.04-20.45L141.04-20.45 140.59-23.9Q142.29-24.2 144.36-24.45 146.44-24.7 148.59-24.85 150.74-25 152.54-25ZM146.34-15.05L158.94-15.05 158.89-11.65 147.39-11.6Q145.69-11.55 145.01-10.73 144.34-9.9 144.34-8.45L144.34-8.45 144.34-6.95Q144.34-5.15 145.21-4.33 146.09-3.5 147.99-3.5L147.99-3.5Q149.39-3.5 151.11-4.03 152.84-4.55 154.59-5.63 156.34-6.7 157.74-8.35L157.74-8.35 157.74-5.2Q157.24-4.5 156.24-3.53 155.24-2.55 153.81-1.65 152.39-0.75 150.66-0.15 148.94 0.45 146.89 0.45L146.89 0.45Q144.69 0.45 143.01-0.33 141.34-1.1 140.39-2.63 139.44-4.15 139.44-6.35L139.44-6.35 139.44-9Q139.44-11.85 141.26-13.45 143.09-15.05 146.34-15.05L146.34-15.05ZM185.38-24.4L190.58-24.4 180.98 1.15Q180.38 2.8 179.46 4.4 178.53 6 177.18 7.33 175.83 8.65 174.01 9.45 172.18 10.25 169.78 10.25L169.78 10.25 169.33 7.2Q172.33 6.25 173.96 4.7 175.58 3.15 176.53 0.9L176.53 0.9 177.78-2.1Q178.18-3.15 178.58-4.42 178.98-5.7 179.33-6.65L179.33-6.65 185.38-24.4ZM165.43-24.4L170.58-24.4 176.73-6.65Q176.98-5.9 177.21-5.13 177.43-4.35 177.58-3.55L177.58-3.55 178.78-3.55 177.23 0 175.83 0Q175.23 0 174.78-0.33 174.33-0.65 174.13-1.25L174.13-1.25 165.43-24.4Z" opacity="1" transform="matrix(1,0,0,1,0,0)" fill="#ffffff" class="undefined-text-0" data-fill-palette-color="primary" id="text-0"></path></svg></g></svg></g></svg></g></svg></g></svg></g></svg></g></svg></g><path d="M198.083 87.933L198.083 29.091 9.064 29.091 9.064 218.109 198.083 218.109 198.083 159.267 192.732 159.267 192.732 212.759 14.414 212.759 14.414 34.441 192.732 34.441 192.732 87.933Z" fill="#ffffff" stroke="transparent" data-fill-palette-color="primary"></path></svg></g><defs></defs></svg><rect width="395.52" height="247.2" fill="none" stroke="none" visibility="hidden"></rect></g></svg></g></svg>